G04 ---------------------------- Layer name :TOP PASTER LAYER*
G04 easyEDA 0.1*
G04 Scale: 100 percent, Rotated: No, Reflected: No *
G04 Dimensions in inches *
G04 leading zeros omitted , absolute positions ,2 integer and 4 * 
%FSLAX24Y24*%
%MOIN*%
G90*
G70D02*

%ADD12R,1.732280X0.012992*%
%ADD13R,0.012992X0.889762*%
%ADD14R,1.714563X0.012992*%
%ADD15R,0.012992X0.857085*%
%ADD16R,1.685823X0.012992*%
%ADD17R,0.012992X0.826770*%
%ADD18R,1.655510X0.012992*%
%ADD19R,0.012992X0.794490*%
%ADD20R,1.622440X0.012992*%
%ADD21R,0.012992X0.759841*%
%ADD22R,1.588579X0.012992*%
%ADD23R,0.012992X0.729132*%
%ADD24R,1.557480X0.012992*%
%ADD25R,0.012992X0.700786*%
%ADD26R,1.527556X0.012992*%
%ADD27R,0.012992X0.667320*%
%ADD28R,1.494879X0.012992*%
%ADD29R,0.012992X0.637007*%
%ADD30R,1.460230X0.012992*%
%ADD31R,0.012992X0.599605*%
%ADD32R,1.429525X0.012992*%
%ADD33R,0.012992X0.570865*%
%ADD34R,1.395667X0.012992*%
%ADD35R,0.012992X0.536613*%
%ADD36R,1.366139X0.012992*%
%ADD37R,0.012992X0.509840*%
%ADD38R,1.334249X0.012992*%
%ADD39R,0.012992X0.474010*%
%ADD40R,1.299997X0.012992*%
%ADD41R,0.012992X0.444090*%
%ADD42R,1.267320X0.012992*%
%ADD43R,0.012992X0.410235*%
%ADD44R,1.238580X0.012992*%
%ADD45R,0.012992X0.382283*%
%ADD46R,1.207478X0.012992*%
%ADD47R,0.012992X0.347640*%
%ADD48R,1.174801X0.012992*%
%ADD49R,0.012992X0.315747*%
%ADD50R,1.141340X0.012992*%
%ADD51R,0.012992X0.281100*%
%ADD52R,1.108270X0.012992*%
%ADD53R,0.012992X0.249999*%
%ADD54R,1.074410X0.012992*%
%ADD55R,0.012992X0.216929*%
%ADD56R,1.044486X0.012992*%
%ADD57R,0.012992X0.190157*%
%ADD58R,1.014959X0.012992*%
%ADD59R,0.012992X0.153540*%
%ADD60R,0.981888X0.012992*%
%ADD61R,0.012992X0.123230*%
%ADD62R,0.947636X0.012992*%
%ADD63R,0.012992X0.090551*%

%LPD*%
G54D12*
G01X9900Y10100D03*
G54D13*
G01X18494Y5588D03*
G54D14*
G01X9857Y1205D03*
G54D15*
G01X1348Y5557D03*
G54D16*
G01X9840Y9776D03*
G54D17*
G01X18203Y5584D03*
G54D18*
G01X9865Y1517D03*
G54D19*
G01X1651Y5553D03*
G54D20*
G01X9825Y9457D03*
G54D21*
G01X17873Y5596D03*
G54D22*
G01X9865Y1863D03*
G54D23*
G01X1986Y5565D03*
G54D24*
G01X9836Y9142D03*
G54D25*
G01X17557Y5576D03*
G54D26*
G01X9857Y2140D03*
G54D27*
G01X2286Y5536D03*
G54D28*
G01X9825Y8809D03*
G54D29*
G01X17234Y5561D03*
G54D30*
G01X9869Y2442D03*
G54D31*
G01X2636Y5501D03*
G54D32*
G01X9844Y8434D03*
G54D33*
G01X16928Y5517D03*
G54D34*
G01X9884Y2726D03*
G54D35*
G01X2971Y5469D03*
G54D36*
G01X9865Y8088D03*
G54D37*
G01X16628Y5478D03*
G54D38*
G01X9892Y2994D03*
G54D39*
G01X3286Y5426D03*
G54D40*
G01X9844Y7734D03*
G54D41*
G01X16282Y5451D03*
G54D42*
G01X9884Y3296D03*
G54D43*
G01X3613Y5411D03*
G54D44*
G01X9869Y7398D03*
G54D45*
G01X15994Y5426D03*
G54D46*
G01X9892Y3584D03*
G54D47*
G01X3919Y5384D03*
G54D48*
G01X9857Y7057D03*
G54D49*
G01X15663Y5415D03*
G54D50*
G01X9892Y3903D03*
G54D51*
G01X4250Y5371D03*
G54D52*
G01X9853Y6709D03*
G54D53*
G01X15328Y5398D03*
G54D54*
G01X9896Y4213D03*
G54D55*
G01X4588Y5359D03*
G54D56*
G01X9876Y6380D03*
G54D57*
G01X15034Y5367D03*
G54D58*
G01X9900Y4482D03*
G54D59*
G01X4892Y5309D03*
G54D60*
G01X9865Y6009D03*
G54D61*
G01X14707Y5332D03*
G54D62*
G01X9903Y4780D03*
G54D63*
G01X5230Y5296D03*

M00*
M02*