G04 ---------------------------- Layer name :BOTTOM SILK LAYER*
G04 easyEDA 0.1*
G04 Scale: 100 percent, Rotated: No, Reflected: No *
G04 Dimensions in inches *
G04 leading zeros omitted , absolute positions ,2 integer and 4 * 
%FSLAX24Y24*%
%MOIN*%
G90*
G70D02*


%LPD*%

%LPD*%
G36*
G01X6716Y3327D02*
G01X6716Y3327D01*
G01X6716Y3327D01*
G01X6724Y3278D01*
G01X6746Y3243D01*
G01X6784Y3222D01*
G01X6837Y3215D01*
G01X6911Y3215D01*
G01X6911Y3022D01*
G01X6972Y3022D01*
G01X6972Y3518D01*
G01X6838Y3518D01*
G01X6838Y3518D01*
G01X6785Y3511D01*
G01X6746Y3490D01*
G01X6724Y3456D01*
G01X6716Y3408D01*
G01X6716Y3327D01*
G37*
G36*
G01X6326Y3142D02*
G01X6326Y3142D01*
G01X6326Y3142D01*
G01X6334Y3089D01*
G01X6359Y3052D01*
G01X6359Y3052D01*
G01X6399Y3029D01*
G01X6453Y3022D01*
G01X6471Y3022D01*
G01X6471Y3022D01*
G01X6526Y3029D01*
G01X6566Y3052D01*
G01X6566Y3052D01*
G01X6591Y3089D01*
G01X6599Y3142D01*
G01X6599Y3518D01*
G01X6537Y3518D01*
G01X6537Y3129D01*
G01X6537Y3129D01*
G01X6536Y3118D01*
G01X6533Y3108D01*
G01X6528Y3099D01*
G01X6521Y3091D01*
G01X6521Y3091D01*
G01X6512Y3084D01*
G01X6502Y3079D01*
G01X6491Y3077D01*
G01X6478Y3076D01*
G01X6446Y3076D01*
G01X6446Y3076D01*
G01X6434Y3077D01*
G01X6422Y3079D01*
G01X6413Y3084D01*
G01X6404Y3091D01*
G01X6404Y3091D01*
G01X6397Y3099D01*
G01X6392Y3108D01*
G01X6389Y3118D01*
G01X6388Y3129D01*
G01X6388Y3518D01*
G01X6326Y3518D01*
G01X6326Y3142D01*
G37*
G36*
G01X5948Y3134D02*
G01X5948Y3134D01*
G01X5948Y3134D01*
G01X5950Y3105D01*
G01X5955Y3082D01*
G01X5964Y3062D01*
G01X5976Y3048D01*
G01X5976Y3048D01*
G01X6013Y3028D01*
G01X6069Y3022D01*
G01X6210Y3022D01*
G01X6210Y3518D01*
G01X6077Y3518D01*
G01X6077Y3518D01*
G01X6023Y3511D01*
G01X5985Y3493D01*
G01X5985Y3493D01*
G01X5972Y3478D01*
G01X5962Y3458D01*
G01X5957Y3435D01*
G01X5955Y3408D01*
G01X5955Y3367D01*
G01X5955Y3367D01*
G01X5965Y3319D01*
G01X5994Y3285D01*
G01X5994Y3285D01*
G01X5960Y3250D01*
G01X5948Y3198D01*
G01X5948Y3134D01*
G37*

%LPC*%
G36*
G01X6778Y3320D02*
G01X6778Y3320D01*
G01X6778Y3414D01*
G01X6778Y3414D01*
G01X6779Y3426D01*
G01X6781Y3437D01*
G01X6785Y3446D01*
G01X6790Y3453D01*
G01X6790Y3453D01*
G01X6797Y3458D01*
G01X6806Y3462D01*
G01X6817Y3464D01*
G01X6830Y3465D01*
G01X6911Y3465D01*
G01X6911Y3268D01*
G01X6830Y3268D01*
G01X6830Y3268D01*
G01X6817Y3268D01*
G01X6806Y3271D01*
G01X6797Y3274D01*
G01X6790Y3280D01*
G01X6790Y3280D01*
G01X6785Y3287D01*
G01X6781Y3296D01*
G01X6779Y3307D01*
G01X6778Y3320D01*
G37*
G36*
G01X6017Y3360D02*
G01X6017Y3360D01*
G01X6017Y3414D01*
G01X6017Y3414D01*
G01X6018Y3426D01*
G01X6020Y3437D01*
G01X6024Y3446D01*
G01X6029Y3453D01*
G01X6029Y3453D01*
G01X6036Y3458D01*
G01X6046Y3462D01*
G01X6056Y3464D01*
G01X6069Y3465D01*
G01X6149Y3465D01*
G01X6149Y3308D01*
G01X6069Y3308D01*
G01X6069Y3308D01*
G01X6058Y3308D01*
G01X6049Y3311D01*
G01X6040Y3315D01*
G01X6032Y3322D01*
G01X6032Y3322D01*
G01X6025Y3330D01*
G01X6021Y3339D01*
G01X6018Y3349D01*
G01X6017Y3360D01*
G37*
G36*
G01X6010Y3127D02*
G01X6010Y3127D01*
G01X6010Y3204D01*
G01X6010Y3204D01*
G01X6011Y3215D01*
G01X6014Y3225D01*
G01X6018Y3233D01*
G01X6024Y3241D01*
G01X6024Y3241D01*
G01X6032Y3247D01*
G01X6040Y3251D01*
G01X6051Y3254D01*
G01X6062Y3255D01*
G01X6149Y3255D01*
G01X6149Y3075D01*
G01X6062Y3075D01*
G01X6062Y3075D01*
G01X6049Y3075D01*
G01X6039Y3078D01*
G01X6030Y3082D01*
G01X6023Y3088D01*
G01X6023Y3088D01*
G01X6017Y3095D01*
G01X6013Y3103D01*
G01X6011Y3114D01*
G01X6010Y3127D01*
G37*

%LPD*%

%LPD*%
G36*
G01X3305Y3327D02*
G01X3305Y3327D01*
G01X3305Y3327D01*
G01X3312Y3278D01*
G01X3335Y3243D01*
G01X3373Y3222D01*
G01X3426Y3215D01*
G01X3500Y3215D01*
G01X3500Y3022D01*
G01X3561Y3022D01*
G01X3561Y3518D01*
G01X3427Y3518D01*
G01X3427Y3518D01*
G01X3373Y3511D01*
G01X3335Y3490D01*
G01X3312Y3456D01*
G01X3305Y3408D01*
G01X3305Y3327D01*
G37*
G36*
G01X3131Y3228D02*
G01X3131Y3228D01*
G01X3131Y3022D01*
G01X3193Y3022D01*
G01X3193Y3518D01*
G01X3059Y3518D01*
G01X3059Y3518D01*
G01X3006Y3511D01*
G01X2968Y3490D01*
G01X2945Y3456D01*
G01X2938Y3408D01*
G01X2938Y3339D01*
G01X2938Y3339D01*
G01X2953Y3274D01*
G01X3001Y3240D01*
G01X2903Y3022D01*
G01X2970Y3022D01*
G01X3062Y3228D01*
G01X3131Y3228D01*
G37*
G36*
G01X2574Y3022D02*
G01X2574Y3022D01*
G01X2763Y3022D01*
G01X2763Y3074D01*
G01X2699Y3074D01*
G01X2699Y3466D01*
G01X2763Y3466D01*
G01X2763Y3518D01*
G01X2574Y3518D01*
G01X2574Y3466D01*
G01X2638Y3466D01*
G01X2638Y3074D01*
G01X2574Y3074D01*
G01X2574Y3022D01*
G37*
G36*
G01X2138Y3518D02*
G01X2138Y3518D01*
G01X2249Y3022D01*
G01X2333Y3022D01*
G01X2437Y3518D01*
G01X2375Y3518D01*
G01X2290Y3084D01*
G01X2198Y3518D01*
G01X2138Y3518D01*
G37*

%LPC*%
G36*
G01X3367Y3320D02*
G01X3367Y3320D01*
G01X3367Y3414D01*
G01X3367Y3414D01*
G01X3367Y3426D01*
G01X3370Y3437D01*
G01X3373Y3446D01*
G01X3379Y3453D01*
G01X3379Y3453D01*
G01X3386Y3458D01*
G01X3395Y3462D01*
G01X3406Y3464D01*
G01X3419Y3465D01*
G01X3500Y3465D01*
G01X3500Y3268D01*
G01X3419Y3268D01*
G01X3419Y3268D01*
G01X3406Y3268D01*
G01X3395Y3271D01*
G01X3386Y3274D01*
G01X3379Y3280D01*
G01X3379Y3280D01*
G01X3373Y3287D01*
G01X3370Y3296D01*
G01X3367Y3307D01*
G01X3367Y3320D01*
G37*
G36*
G01X2999Y3332D02*
G01X2999Y3332D01*
G01X2999Y3414D01*
G01X2999Y3414D01*
G01X3000Y3426D01*
G01X3002Y3437D01*
G01X3006Y3446D01*
G01X3012Y3453D01*
G01X3012Y3453D01*
G01X3019Y3458D01*
G01X3027Y3462D01*
G01X3038Y3464D01*
G01X3051Y3465D01*
G01X3131Y3465D01*
G01X3131Y3281D01*
G01X3051Y3281D01*
G01X3051Y3281D01*
G01X3038Y3281D01*
G01X3027Y3284D01*
G01X3019Y3287D01*
G01X3012Y3293D01*
G01X3012Y3293D01*
G01X3006Y3300D01*
G01X3002Y3308D01*
G01X3000Y3319D01*
G01X2999Y3332D01*
G37*

%LPD*%

%LPD*%
G36*
G01X17110Y5964D02*
G01X17110Y5964D01*
G01X17262Y5964D01*
G01X17429Y6629D01*
G01X17429Y5964D01*
G01X17515Y5964D01*
G01X17515Y6708D01*
G01X17364Y6708D01*
G01X17196Y6043D01*
G01X17196Y6708D01*
G01X17110Y6708D01*
G01X17110Y5964D01*
G37*
G36*
G01X16566Y6256D02*
G01X16566Y6256D01*
G01X16911Y6256D01*
G01X16911Y6336D01*
G01X16566Y6336D01*
G01X16566Y6256D01*
G37*
G36*
G01X15951Y6145D02*
G01X15951Y6145D01*
G01X15951Y6145D01*
G01X15954Y6102D01*
G01X15964Y6065D01*
G01X15979Y6034D01*
G01X16001Y6009D01*
G01X16001Y6009D01*
G01X16028Y5989D01*
G01X16061Y5975D01*
G01X16099Y5967D01*
G01X16143Y5964D01*
G01X16185Y5964D01*
G01X16185Y5964D01*
G01X16229Y5967D01*
G01X16267Y5975D01*
G01X16300Y5989D01*
G01X16327Y6009D01*
G01X16327Y6009D01*
G01X16349Y6034D01*
G01X16365Y6065D01*
G01X16374Y6102D01*
G01X16377Y6145D01*
G01X16377Y6527D01*
G01X16377Y6527D01*
G01X16374Y6569D01*
G01X16365Y6606D01*
G01X16349Y6637D01*
G01X16327Y6663D01*
G01X16327Y6663D01*
G01X16300Y6682D01*
G01X16267Y6696D01*
G01X16229Y6705D01*
G01X16185Y6708D01*
G01X16143Y6708D01*
G01X16143Y6708D01*
G01X16099Y6705D01*
G01X16061Y6696D01*
G01X16028Y6682D01*
G01X16001Y6663D01*
G01X16001Y6663D01*
G01X15979Y6637D01*
G01X15964Y6606D01*
G01X15954Y6569D01*
G01X15951Y6527D01*
G01X15951Y6145D01*
G37*
G36*
G01X15418Y6256D02*
G01X15418Y6256D01*
G01X15763Y6256D01*
G01X15763Y6336D01*
G01X15418Y6336D01*
G01X15418Y6256D01*
G37*
G36*
G01X14816Y6132D02*
G01X14816Y6132D01*
G01X14816Y6132D01*
G01X14827Y6054D01*
G01X14858Y6002D01*
G01X14858Y6002D01*
G01X14883Y5985D01*
G01X14914Y5973D01*
G01X14952Y5966D01*
G01X14997Y5964D01*
G01X15216Y5964D01*
G01X15216Y6708D01*
G01X15010Y6708D01*
G01X15010Y6708D01*
G01X14965Y6705D01*
G01X14926Y6698D01*
G01X14893Y6686D01*
G01X14865Y6669D01*
G01X14865Y6669D01*
G01X14844Y6646D01*
G01X14828Y6617D01*
G01X14819Y6583D01*
G01X14816Y6542D01*
G01X14816Y6132D01*
G37*
G36*
G01X14270Y6256D02*
G01X14270Y6256D01*
G01X14615Y6256D01*
G01X14615Y6336D01*
G01X14270Y6336D01*
G01X14270Y6256D01*
G37*
G36*
G01X13690Y5964D02*
G01X13690Y5964D01*
G01X14045Y5964D01*
G01X14045Y6708D01*
G01X13690Y6708D01*
G01X13690Y6630D01*
G01X13953Y6630D01*
G01X13953Y6387D01*
G01X13717Y6387D01*
G01X13717Y6309D01*
G01X13953Y6309D01*
G01X13953Y6042D01*
G01X13690Y6042D01*
G01X13690Y5964D01*
G37*
G36*
G01X13241Y5964D02*
G01X13241Y5964D01*
G01X13347Y5964D01*
G01X13347Y6070D01*
G01X13241Y6070D01*
G01X13241Y5964D01*
G37*
G36*
G01X12824Y5964D02*
G01X12824Y5964D01*
G01X12914Y5964D01*
G01X12914Y6495D01*
G01X12829Y6495D01*
G01X12829Y6470D01*
G01X12829Y6470D01*
G01X12811Y6481D01*
G01X12791Y6488D01*
G01X12769Y6493D01*
G01X12744Y6495D01*
G01X12695Y6495D01*
G01X12695Y6495D01*
G01X12620Y6485D01*
G01X12567Y6455D01*
G01X12567Y6455D01*
G01X12536Y6402D01*
G01X12525Y6325D01*
G01X12525Y5964D01*
G01X12616Y5964D01*
G01X12616Y6347D01*
G01X12616Y6347D01*
G01X12617Y6362D01*
G01X12621Y6375D01*
G01X12626Y6387D01*
G01X12634Y6397D01*
G01X12634Y6397D01*
G01X12644Y6405D01*
G01X12656Y6411D01*
G01X12670Y6415D01*
G01X12685Y6416D01*
G01X12755Y6416D01*
G01X12755Y6416D01*
G01X12771Y6415D01*
G01X12786Y6411D01*
G01X12797Y6405D01*
G01X12807Y6397D01*
G01X12807Y6397D01*
G01X12815Y6387D01*
G01X12820Y6378D01*
G01X12823Y6367D01*
G01X12824Y6357D01*
G01X12824Y5964D01*
G37*
G36*
G01X11994Y5964D02*
G01X11994Y5964D01*
G01X12152Y5964D01*
G01X12152Y5964D01*
G01X12196Y5966D01*
G01X12233Y5974D01*
G01X12264Y5986D01*
G01X12289Y6004D01*
G01X12289Y6004D01*
G01X12322Y6056D01*
G01X12333Y6134D01*
G01X12333Y6325D01*
G01X12333Y6325D01*
G01X12323Y6403D01*
G01X12294Y6456D01*
G01X12294Y6456D01*
G01X12241Y6485D01*
G01X12163Y6495D01*
G01X12113Y6495D01*
G01X12113Y6495D01*
G01X12066Y6490D01*
G01X12028Y6476D01*
G01X11998Y6454D01*
G01X11977Y6422D01*
G01X11964Y6381D01*
G01X11960Y6331D01*
G01X11960Y6193D01*
G01X12243Y6193D01*
G01X12243Y6113D01*
G01X12243Y6113D01*
G01X12223Y6061D01*
G01X12163Y6044D01*
G01X11994Y6044D01*
G01X11994Y5964D01*
G37*
G36*
G01X11399Y5964D02*
G01X11399Y5964D01*
G01X11533Y5964D01*
G01X11533Y5964D01*
G01X11558Y5966D01*
G01X11581Y5972D01*
G01X11599Y5983D01*
G01X11615Y5999D01*
G01X11615Y5999D01*
G01X11637Y6039D01*
G01X11644Y6092D01*
G01X11644Y6416D01*
G01X11745Y6416D01*
G01X11745Y6495D01*
G01X11644Y6495D01*
G01X11644Y6623D01*
G01X11554Y6623D01*
G01X11554Y6495D01*
G01X11399Y6495D01*
G01X11399Y6416D01*
G01X11554Y6416D01*
G01X11554Y6086D01*
G01X11554Y6086D01*
G01X11551Y6067D01*
G01X11542Y6054D01*
G01X11527Y6046D01*
G01X11506Y6044D01*
G01X11399Y6044D01*
G01X11399Y5964D01*
G37*
G36*
G01X10764Y6825D02*
G01X10764Y6825D01*
G01X11142Y5847D01*
G01X11232Y5847D01*
G01X10853Y6825D01*
G01X10764Y6825D01*
G37*
G36*
G01X17262Y5443D02*
G01X17262Y5443D01*
G01X17363Y5443D01*
G01X17363Y5539D01*
G01X17262Y5539D01*
G01X17262Y5443D01*
G37*
G36*
G01X17110Y4795D02*
G01X17110Y4795D01*
G01X17358Y4795D01*
G01X17358Y5246D01*
G01X17514Y5246D01*
G01X17514Y5326D01*
G01X17267Y5326D01*
G01X17267Y4874D01*
G01X17110Y4874D01*
G01X17110Y4795D01*
G37*
G36*
G01X16580Y4795D02*
G01X16580Y4795D01*
G01X16717Y4795D01*
G01X16717Y4795D01*
G01X16761Y4797D01*
G01X16798Y4805D01*
G01X16829Y4817D01*
G01X16854Y4835D01*
G01X16854Y4835D01*
G01X16886Y4887D01*
G01X16897Y4965D01*
G01X16897Y5156D01*
G01X16897Y5156D01*
G01X16886Y5233D01*
G01X16853Y5286D01*
G01X16853Y5286D01*
G01X16828Y5303D01*
G01X16797Y5316D01*
G01X16760Y5323D01*
G01X16717Y5326D01*
G01X16580Y5326D01*
G01X16580Y5246D01*
G01X16727Y5246D01*
G01X16727Y5246D01*
G01X16787Y5228D01*
G01X16807Y5177D01*
G01X16807Y4944D01*
G01X16807Y4944D01*
G01X16802Y4913D01*
G01X16787Y4891D01*
G01X16762Y4878D01*
G01X16727Y4874D01*
G01X16580Y4874D01*
G01X16580Y4795D01*
G37*
G36*
G01X16012Y4795D02*
G01X16012Y4795D01*
G01X16170Y4795D01*
G01X16170Y4795D01*
G01X16214Y4797D01*
G01X16251Y4805D01*
G01X16282Y4817D01*
G01X16307Y4835D01*
G01X16307Y4835D01*
G01X16340Y4887D01*
G01X16351Y4965D01*
G01X16351Y5156D01*
G01X16351Y5156D01*
G01X16341Y5234D01*
G01X16312Y5287D01*
G01X16312Y5287D01*
G01X16259Y5316D01*
G01X16181Y5326D01*
G01X16131Y5326D01*
G01X16131Y5326D01*
G01X16084Y5321D01*
G01X16046Y5307D01*
G01X16016Y5284D01*
G01X15995Y5252D01*
G01X15982Y5211D01*
G01X15978Y5161D01*
G01X15978Y5023D01*
G01X16261Y5023D01*
G01X16261Y4944D01*
G01X16261Y4944D01*
G01X16256Y4913D01*
G01X16241Y4891D01*
G01X16216Y4878D01*
G01X16181Y4874D01*
G01X16012Y4874D01*
G01X16012Y4795D01*
G37*
G36*
G01X15395Y4965D02*
G01X15395Y4965D01*
G01X15395Y4965D01*
G01X15398Y4923D01*
G01X15406Y4887D01*
G01X15420Y4858D01*
G01X15440Y4835D01*
G01X15440Y4835D01*
G01X15465Y4817D01*
G01X15496Y4805D01*
G01X15533Y4797D01*
G01X15576Y4795D01*
G01X15784Y4795D01*
G01X15784Y5539D01*
G01X15694Y5539D01*
G01X15694Y5305D01*
G01X15694Y5305D01*
G01X15677Y5314D01*
G01X15658Y5320D01*
G01X15637Y5324D01*
G01X15614Y5326D01*
G01X15576Y5326D01*
G01X15576Y5326D01*
G01X15533Y5323D01*
G01X15495Y5316D01*
G01X15464Y5303D01*
G01X15439Y5286D01*
G01X15439Y5286D01*
G01X15406Y5233D01*
G01X15395Y5156D01*
G01X15395Y4965D01*
G37*
G36*
G01X14818Y4965D02*
G01X14818Y4965D01*
G01X14818Y4965D01*
G01X14829Y4887D01*
G01X14862Y4835D01*
G01X14862Y4835D01*
G01X14887Y4817D01*
G01X14918Y4805D01*
G01X14956Y4797D01*
G01X14999Y4795D01*
G01X15034Y4795D01*
G01X15034Y4795D01*
G01X15077Y4797D01*
G01X15114Y4805D01*
G01X15146Y4817D01*
G01X15171Y4835D01*
G01X15171Y4835D01*
G01X15204Y4887D01*
G01X15215Y4965D01*
G01X15215Y5156D01*
G01X15215Y5156D01*
G01X15204Y5233D01*
G01X15171Y5286D01*
G01X15171Y5286D01*
G01X15146Y5303D01*
G01X15114Y5316D01*
G01X15077Y5323D01*
G01X15034Y5326D01*
G01X14999Y5326D01*
G01X14999Y5326D01*
G01X14956Y5323D01*
G01X14918Y5316D01*
G01X14887Y5303D01*
G01X14862Y5286D01*
G01X14862Y5286D01*
G01X14829Y5233D01*
G01X14818Y5156D01*
G01X14818Y4965D01*
G37*
G36*
G01X14225Y4795D02*
G01X14225Y4795D01*
G01X14331Y4795D01*
G01X14443Y4996D01*
G01X14560Y4795D01*
G01X14660Y4795D01*
G01X14494Y5069D01*
G01X14647Y5326D01*
G01X14542Y5326D01*
G01X14441Y5148D01*
G01X14338Y5326D01*
G01X14239Y5326D01*
G01X14394Y5073D01*
G01X14225Y4795D01*
G37*
G36*
G01X13815Y4795D02*
G01X13815Y4795D01*
G01X13921Y4795D01*
G01X13921Y4901D01*
G01X13815Y4901D01*
G01X13815Y4795D01*
G37*
G36*
G01X13398Y4795D02*
G01X13398Y4795D01*
G01X13488Y4795D01*
G01X13488Y5539D01*
G01X13398Y5539D01*
G01X13398Y5305D01*
G01X13398Y5305D01*
G01X13381Y5314D01*
G01X13362Y5320D01*
G01X13341Y5324D01*
G01X13318Y5326D01*
G01X13269Y5326D01*
G01X13269Y5326D01*
G01X13194Y5316D01*
G01X13141Y5286D01*
G01X13141Y5286D01*
G01X13110Y5233D01*
G01X13099Y5156D01*
G01X13099Y4795D01*
G01X13190Y4795D01*
G01X13190Y5177D01*
G01X13190Y5177D01*
G01X13191Y5192D01*
G01X13195Y5205D01*
G01X13200Y5217D01*
G01X13208Y5228D01*
G01X13208Y5228D01*
G01X13218Y5236D01*
G01X13230Y5241D01*
G01X13244Y5245D01*
G01X13259Y5246D01*
G01X13329Y5246D01*
G01X13329Y5246D01*
G01X13345Y5245D01*
G01X13359Y5241D01*
G01X13371Y5236D01*
G01X13380Y5229D01*
G01X13380Y5229D01*
G01X13388Y5220D01*
G01X13393Y5210D01*
G01X13397Y5201D01*
G01X13398Y5191D01*
G01X13398Y4795D01*
G37*
G36*
G01X12547Y4795D02*
G01X12547Y4795D01*
G01X12681Y4795D01*
G01X12681Y4795D01*
G01X12706Y4797D01*
G01X12729Y4803D01*
G01X12747Y4814D01*
G01X12763Y4830D01*
G01X12763Y4830D01*
G01X12785Y4870D01*
G01X12792Y4922D01*
G01X12792Y5246D01*
G01X12893Y5246D01*
G01X12893Y5326D01*
G01X12792Y5326D01*
G01X12792Y5454D01*
G01X12702Y5454D01*
G01X12702Y5326D01*
G01X12547Y5326D01*
G01X12547Y5246D01*
G01X12702Y5246D01*
G01X12702Y4917D01*
G01X12702Y4917D01*
G01X12699Y4898D01*
G01X12690Y4884D01*
G01X12675Y4876D01*
G01X12654Y4874D01*
G01X12547Y4874D01*
G01X12547Y4795D01*
G37*
G36*
G01X12302Y4795D02*
G01X12302Y4795D01*
G01X12387Y4795D01*
G01X12387Y5326D01*
G01X12307Y5326D01*
G01X12307Y5302D01*
G01X12307Y5302D01*
G01X12293Y5312D01*
G01X12277Y5320D01*
G01X12260Y5324D01*
G01X12242Y5326D01*
G01X12235Y5326D01*
G01X12235Y5326D01*
G01X12172Y5315D01*
G01X12130Y5284D01*
G01X12130Y5284D01*
G01X12089Y5315D01*
G01X12037Y5326D01*
G01X12031Y5326D01*
G01X12031Y5326D01*
G01X11975Y5317D01*
G01X11935Y5293D01*
G01X11935Y5293D01*
G01X11913Y5247D01*
G01X11905Y5176D01*
G01X11905Y4795D01*
G01X11990Y4795D01*
G01X11990Y5177D01*
G01X11990Y5177D01*
G01X11991Y5197D01*
G01X11992Y5214D01*
G01X11995Y5228D01*
G01X11999Y5238D01*
G01X11999Y5238D01*
G01X12005Y5245D01*
G01X12014Y5250D01*
G01X12026Y5254D01*
G01X12040Y5255D01*
G01X12046Y5255D01*
G01X12046Y5255D01*
G01X12087Y5237D01*
G01X12103Y5185D01*
G01X12103Y4795D01*
G01X12188Y4795D01*
G01X12188Y5177D01*
G01X12188Y5177D01*
G01X12189Y5197D01*
G01X12191Y5215D01*
G01X12194Y5228D01*
G01X12199Y5239D01*
G01X12199Y5239D01*
G01X12206Y5246D01*
G01X12214Y5251D01*
G01X12225Y5254D01*
G01X12237Y5255D01*
G01X12244Y5255D01*
G01X12244Y5255D01*
G01X12286Y5239D01*
G01X12302Y5194D01*
G01X12302Y4795D01*
G37*
G36*
G01X11359Y4795D02*
G01X11359Y4795D01*
G01X11538Y4795D01*
G01X11538Y4795D01*
G01X11556Y4796D01*
G01X11572Y4801D01*
G01X11587Y4809D01*
G01X11601Y4820D01*
G01X11601Y4820D01*
G01X11613Y4835D01*
G01X11621Y4853D01*
G01X11626Y4875D01*
G01X11628Y4901D01*
G01X11628Y5459D01*
G01X11784Y5459D01*
G01X11784Y5539D01*
G01X11538Y5539D01*
G01X11538Y4906D01*
G01X11538Y4906D01*
G01X11538Y4898D01*
G01X11536Y4891D01*
G01X11533Y4886D01*
G01X11529Y4882D01*
G01X11529Y4882D01*
G01X11524Y4878D01*
G01X11518Y4876D01*
G01X11510Y4874D01*
G01X11501Y4874D01*
G01X11359Y4874D01*
G01X11359Y4795D01*
G37*

%LPC*%
G36*
G01X16044Y6125D02*
G01X16044Y6125D01*
G01X16044Y6548D01*
G01X16044Y6548D01*
G01X16046Y6564D01*
G01X16050Y6578D01*
G01X16058Y6592D01*
G01X16068Y6604D01*
G01X16068Y6604D01*
G01X16081Y6614D01*
G01X16097Y6621D01*
G01X16113Y6625D01*
G01X16132Y6627D01*
G01X16196Y6627D01*
G01X16196Y6627D01*
G01X16215Y6625D01*
G01X16232Y6621D01*
G01X16247Y6614D01*
G01X16260Y6604D01*
G01X16260Y6604D01*
G01X16271Y6592D01*
G01X16278Y6578D01*
G01X16283Y6564D01*
G01X16284Y6548D01*
G01X16284Y6125D01*
G01X16284Y6125D01*
G01X16283Y6109D01*
G01X16278Y6094D01*
G01X16271Y6080D01*
G01X16260Y6068D01*
G01X16260Y6068D01*
G01X16247Y6058D01*
G01X16232Y6050D01*
G01X16215Y6046D01*
G01X16196Y6045D01*
G01X16132Y6045D01*
G01X16132Y6045D01*
G01X16113Y6046D01*
G01X16097Y6050D01*
G01X16081Y6058D01*
G01X16068Y6068D01*
G01X16068Y6068D01*
G01X16058Y6080D01*
G01X16050Y6094D01*
G01X16046Y6109D01*
G01X16044Y6125D01*
G37*
G36*
G01X14909Y6121D02*
G01X14909Y6121D01*
G01X14909Y6552D01*
G01X14909Y6552D01*
G01X14910Y6568D01*
G01X14914Y6583D01*
G01X14921Y6596D01*
G01X14930Y6608D01*
G01X14930Y6608D01*
G01X14941Y6616D01*
G01X14955Y6623D01*
G01X14969Y6626D01*
G01X14986Y6628D01*
G01X15123Y6628D01*
G01X15123Y6044D01*
G01X14987Y6044D01*
G01X14987Y6044D01*
G01X14968Y6045D01*
G01X14952Y6048D01*
G01X14939Y6054D01*
G01X14928Y6062D01*
G01X14928Y6062D01*
G01X14920Y6073D01*
G01X14914Y6086D01*
G01X14910Y6102D01*
G01X14909Y6121D01*
G37*
G36*
G01X12243Y6347D02*
G01X12243Y6347D01*
G01X12243Y6272D01*
G01X12048Y6272D01*
G01X12048Y6352D01*
G01X12048Y6352D01*
G01X12049Y6365D01*
G01X12053Y6377D01*
G01X12058Y6388D01*
G01X12066Y6398D01*
G01X12066Y6398D01*
G01X12076Y6406D01*
G01X12087Y6411D01*
G01X12099Y6415D01*
G01X12112Y6416D01*
G01X12173Y6416D01*
G01X12173Y6416D01*
G01X12191Y6415D01*
G01X12206Y6411D01*
G01X12218Y6406D01*
G01X12227Y6398D01*
G01X12227Y6398D01*
G01X12234Y6388D01*
G01X12239Y6376D01*
G01X12242Y6363D01*
G01X12243Y6347D01*
G37*
G36*
G01X16261Y5177D02*
G01X16261Y5177D01*
G01X16261Y5103D01*
G01X16066Y5103D01*
G01X16066Y5183D01*
G01X16066Y5183D01*
G01X16067Y5196D01*
G01X16071Y5207D01*
G01X16076Y5218D01*
G01X16084Y5228D01*
G01X16084Y5228D01*
G01X16094Y5236D01*
G01X16105Y5241D01*
G01X16117Y5245D01*
G01X16130Y5246D01*
G01X16192Y5246D01*
G01X16192Y5246D01*
G01X16210Y5245D01*
G01X16224Y5241D01*
G01X16236Y5236D01*
G01X16245Y5229D01*
G01X16245Y5229D01*
G01X16252Y5219D01*
G01X16257Y5207D01*
G01X16260Y5193D01*
G01X16261Y5177D01*
G37*
G36*
G01X15625Y5246D02*
G01X15625Y5246D01*
G01X15625Y5246D01*
G01X15641Y5245D01*
G01X15656Y5241D01*
G01X15667Y5236D01*
G01X15677Y5228D01*
G01X15677Y5228D01*
G01X15685Y5218D01*
G01X15690Y5208D01*
G01X15693Y5198D01*
G01X15694Y5188D01*
G01X15694Y4874D01*
G01X15566Y4874D01*
G01X15566Y4874D01*
G01X15506Y4891D01*
G01X15486Y4944D01*
G01X15486Y5177D01*
G01X15486Y5177D01*
G01X15506Y5228D01*
G01X15566Y5246D01*
G01X15625Y5246D01*
G37*
G36*
G01X14909Y4944D02*
G01X14909Y4944D01*
G01X14909Y5177D01*
G01X14909Y5177D01*
G01X14929Y5228D01*
G01X14988Y5246D01*
G01X15045Y5246D01*
G01X15045Y5246D01*
G01X15104Y5228D01*
G01X15124Y5177D01*
G01X15124Y4944D01*
G01X15124Y4944D01*
G01X15104Y4891D01*
G01X15045Y4874D01*
G01X14988Y4874D01*
G01X14988Y4874D01*
G01X14929Y4891D01*
G01X14909Y4944D01*
G37*

%LPD*%

M00*
M02*