G04 ---------------------------- Layer name :BOTTOM LAYER*
G04 easyEDA 0.1*
G04 Scale: 100 percent, Rotated: No, Reflected: No *
G04 Dimensions in inches *
G04 leading zeros omitted , absolute positions ,2 integer and 4 * 
%FSLAX24Y24*%
%MOIN*%
G90*
G70D02*

%ADD10C,0.010000*%
%ADD11C,0.024400*%
%ADD12R,0.043307X0.043307*%
%ADD13R,0.059055X0.013780*%

%LPD*%
G54D10*
G01X7567Y4488D02*
G01X8743Y4488D01*
G01X8796Y4541D01*
G01X8796Y5269D01*
G01X8776Y5290D01*
G01X3957Y4236D02*
G01X4651Y4236D01*
G01X4681Y4207D01*
G01X4681Y5250D01*
G01X4642Y5289D01*
G01X8775Y5289D01*
G01X8776Y5290D01*
G01X894Y10100D02*
G01X894Y1798D01*
G01X882Y1785D01*
G01X4071Y1785D01*
G01X4091Y1805D01*
G01X4091Y1140D01*
G01X4088Y1138D01*
G01X4071Y1786D02*
G01X5213Y1786D01*
G01X5233Y1805D01*
G01X5233Y1161D01*
G01X5221Y1148D01*
G01X5221Y2488D02*
G01X5221Y3309D01*
G01X5233Y3321D01*
G01X8756Y3321D01*
G01X8815Y3380D01*
G01X8815Y4246D01*
G01X7577Y4246D01*
G01X7567Y4236D01*
G01X4088Y2476D02*
G01X4088Y3284D01*
G01X4051Y3321D01*
G01X2851Y3321D01*
G01X2831Y3301D01*
G01X2831Y4463D01*
G01X2851Y4482D01*
G01X3950Y4482D01*
G01X3957Y4488D01*
G54D12*
G01X1610Y2477D03*
G01X1610Y1138D03*
G01X4089Y2476D03*
G01X4089Y1138D03*
G01X5221Y2488D03*
G01X5221Y1149D03*
G01X7700Y2487D03*
G01X7699Y1148D03*
G54D13*
G01X1742Y3969D03*
G01X1742Y4741D03*
G01X1742Y4489D03*
G01X1742Y4237D03*
G01X3956Y3969D03*
G01X3956Y4741D03*
G01X3956Y4489D03*
G01X3956Y4237D03*
G01X5353Y3969D03*
G01X5353Y4741D03*
G01X5353Y4489D03*
G01X5353Y4237D03*
G01X7567Y3969D03*
G01X7567Y4741D03*
G01X7567Y4489D03*
G01X7567Y4237D03*
G54D11*
G01X894Y10100D03*
G01X8776Y5290D03*

M00*
M02*