G04 ---------------------------- Layer name :BOTTOM SILK LAYER*
G04 easyEDA 0.1*
G04 Scale: 100 percent, Rotated: No, Reflected: No *
G04 Dimensions in inches *
G04 leading zeros omitted , absolute positions ,2 integer and 4 * 
%FSLAX24Y24*%
%MOIN*%
G90*
G70D02*


%LPD*%

%LPD*%
G36*
G01X7666Y7020D02*
G01X7666Y7020D01*
G01X7666Y7052D01*
G01X9830Y8301D01*
G01X9884Y8301D01*
G01X12026Y7063D01*
G01X12026Y7020D01*
G01X12059Y6998D01*
G01X12059Y4533D01*
G01X12026Y4479D01*
G01X9873Y3230D01*
G01X9852Y3252D01*
G01X9819Y3230D01*
G01X7666Y4479D01*
G01X7634Y4533D01*
G01X7634Y6998D01*
G01X7666Y7020D01*
G37*

%LPC*%
G36*
G01X9905Y3381D02*
G01X9905Y3381D01*
G01X11940Y4565D01*
G01X11940Y6901D01*
G01X9905Y5728D01*
G01X9905Y3381D01*
G37*
G36*
G01X9841Y5835D02*
G01X9841Y5835D01*
G01X11886Y7009D01*
G01X9852Y8182D01*
G01X7806Y7009D01*
G01X9841Y5835D01*
G37*
G36*
G01X7752Y4565D02*
G01X7752Y4565D01*
G01X9787Y3381D01*
G01X9787Y5728D01*
G01X7752Y6901D01*
G01X7752Y4565D01*
G37*

%LPD*%

%LPD*%
G36*
G01X406833Y-293271D02*
G01X406833Y-293271D01*
G01X406833Y-293235D01*
G01X409306Y-291807D01*
G01X409368Y-291807D01*
G01X411816Y-293222D01*
G01X411816Y-293271D01*
G01X411853Y-293296D01*
G01X411853Y-296113D01*
G01X411816Y-296175D01*
G01X409356Y-297602D01*
G01X409331Y-297578D01*
G01X409294Y-297602D01*
G01X406833Y-296175D01*
G01X406797Y-296113D01*
G01X406797Y-293296D01*
G01X406833Y-293271D01*
G37*

%LPC*%
G36*
G01X409393Y-297430D02*
G01X409393Y-297430D01*
G01X411718Y-296077D01*
G01X411718Y-293407D01*
G01X409393Y-294748D01*
G01X409393Y-297430D01*
G37*
G36*
G01X409319Y-294625D02*
G01X409319Y-294625D01*
G01X411656Y-293284D01*
G01X409331Y-291943D01*
G01X406993Y-293284D01*
G01X409319Y-294625D01*
G37*
G36*
G01X406932Y-296077D02*
G01X406932Y-296077D01*
G01X409257Y-297430D01*
G01X409257Y-294748D01*
G01X406932Y-293407D01*
G01X406932Y-296077D01*
G37*

%LPD*%

M00*
M02*