G04 ---------------------------- Layer name :KeepOutLayer *
G04 easyEDA 0.1*
G04 Scale: 100 percent, Rotated: No, Reflected: No *
G04 Dimensions in inches *
G04 leading zeros omitted , absolute positions ,2 integer and 4 * 
%FSLAX24Y24*%
%MOIN*%
G90*
G70D02*

%ADD10C,0.010000*%
G54D10*
G01X19784Y1360D02*
G01X19773Y1181D01*
G01X19739Y1008D01*
G01X19684Y844D01*
G01X19610Y689D01*
G01X19410Y416D01*
G01X19150Y200D01*
G01X19001Y117D01*
G01X18673Y8D01*
G01X18497Y-14D01*
G01X1477Y-17D01*
G01X1298Y-5D01*
G01X1125Y28D01*
G01X961Y82D01*
G01X663Y248D01*
G01X417Y480D01*
G01X317Y616D01*
G01X170Y925D01*
G01X125Y1093D01*
G01X102Y1270D01*
G01X99Y10022D01*
G01X111Y10201D01*
G01X145Y10374D01*
G01X199Y10538D01*
G01X365Y10835D01*
G01X597Y11082D01*
G01X734Y11182D01*
G01X1042Y11329D01*
G01X1210Y11374D01*
G01X1387Y11397D01*
G01X18407Y11400D01*
G01X18586Y11388D01*
G01X18759Y11354D01*
G01X18923Y11300D01*
G01X19220Y11134D01*
G01X19466Y10902D01*
G01X19567Y10765D01*
G01X19714Y10457D01*
G01X19759Y10288D01*
G01X19781Y10112D01*
G01X19784Y1518D01*

%LPD*%

M00*
M02*